<svg width="640" height="420" viewBox="0 0 640 420" xmlns="http://www.w3.org/2000/svg">
  <defs>
    <linearGradient id="certGrad" x1="0%" y1="0%" x2="100%" y2="100%">
      <stop offset="0%" stop-color="#0c8c8a"/>
      <stop offset="100%" stop-color="#f15b7a"/>
    </linearGradient>
  </defs>
  <rect width="640" height="420" rx="28" fill="#ffffff"/>
  <rect x="24" y="24" width="592" height="372" rx="22" fill="#f2fbf9" stroke="rgba(12,140,138,0.2)" stroke-width="2"/>
  <circle cx="520" cy="120" r="60" fill="url(#certGrad)" opacity="0.16"/>
  <circle cx="520" cy="120" r="44" fill="#ffffff" stroke="url(#certGrad)" stroke-width="4"/>
  <path d="M520 86l10 20 22 3-16 15 4 22-20-10-20 10 4-22-16-15 22-3z" fill="url(#certGrad)"/>
  <text x="70" y="110" font-family="Fraunces, serif" font-size="28" fill="#0c8c8a">Achievement Certificate</text>
  <text x="70" y="150" font-family="Manrope, sans-serif" font-size="16" fill="#5d6b74">This certifies successful completion of</text>
  <text x="70" y="190" font-family="Fraunces, serif" font-size="24" fill="#1b1d1f">Level 2 — Water Confidence</text>
  <rect x="70" y="220" width="260" height="10" rx="5" fill="#cdeeea"/>
  <rect x="70" y="240" width="320" height="10" rx="5" fill="#cdeeea"/>
  <rect x="70" y="260" width="220" height="10" rx="5" fill="#cdeeea"/>
  <text x="70" y="320" font-family="Manrope, sans-serif" font-size="14" fill="#5d6b74">Signed by certified instructor</text>
  <rect x="70" y="332" width="180" height="8" rx="4" fill="#0c8c8a"/>
  <text x="70" y="360" font-family="Manrope, sans-serif" font-size="12" fill="#5d6b74">TSport Swim Platform</text>
</svg>
