<svg xmlns="http://www.w3.org/2000/svg" width="1200" height="900" viewBox="0 0 1200 900" role="img" aria-label="Community Trust">
  <defs>
    <linearGradient id="bg" x1="0" y1="0" x2="1" y2="1">
      <stop offset="0%" stop-color="#0c8c8a" />
      <stop offset="100%" stop-color="#14b8a6" />
    </linearGradient>
    <linearGradient id="accent" x1="0" y1="0" x2="1" y2="0">
      <stop offset="0%" stop-color="#c8f58e" />
      <stop offset="100%" stop-color="#22d3ee" />
    </linearGradient>
    <linearGradient id="glass" x1="0" y1="0" x2="0" y2="1">
      <stop offset="0%" stop-color="rgba(255,255,255,0.7)" />
      <stop offset="100%" stop-color="rgba(255,255,255,0.15)" />
    </linearGradient>
  </defs>
  <rect width="1200" height="900" fill="url(#bg)" />
  <circle cx="180" cy="140" r="130" fill="rgba(255,255,255,0.2)" />
  <circle cx="980" cy="160" r="160" fill="rgba(255,255,255,0.18)" />
  <circle cx="980" cy="760" r="200" fill="rgba(12,140,138,0.25)" />

  <rect x="140" y="230" width="520" height="320" rx="32" fill="url(#glass)" />
  <rect x="200" y="300" width="360" height="16" rx="8" fill="#ffffff" opacity="0.9" />
  <rect x="200" y="340" width="300" height="12" rx="6" fill="#ffffff" opacity="0.7" />
  <rect x="200" y="378" width="320" height="12" rx="6" fill="#ffffff" opacity="0.6" />

  
  <g transform="translate(690 250)">
    <rect x="0" y="140" width="300" height="160" rx="24" fill="rgba(255,255,255,0.22)" />
    <circle cx="60" cy="120" r="32" fill="#ffffff" opacity="0.85" />
    <circle cx="150" cy="120" r="32" fill="#ffffff" opacity="0.75" />
    <circle cx="240" cy="120" r="32" fill="#ffffff" opacity="0.65" />
    <path d="M60 220c60-30 180-30 240 0" fill="none" stroke="#ffffff" stroke-width="16" stroke-linecap="round" />
  </g>

  <g transform="translate(140 640)">
    <path d="M0 40c80-40 200-40 280 0" fill="none" stroke="rgba(255,255,255,0.7)" stroke-width="10" stroke-linecap="round" />
    <path d="M300 40c80-40 200-40 280 0" fill="none" stroke="rgba(255,255,255,0.6)" stroke-width="10" stroke-linecap="round" />
    <path d="M600 40c80-40 200-40 280 0" fill="none" stroke="rgba(255,255,255,0.5)" stroke-width="10" stroke-linecap="round" />
  </g>

  <text x="50%" y="54%" text-anchor="middle" font-family="Fraunces, serif" font-size="52" fill="#ffffff">Community Trust</text>
  <text x="50%" y="61%" text-anchor="middle" font-family="Manrope, sans-serif" font-size="24" fill="#ffffff" opacity="0.9">Schools, clubs, parents</text>
</svg>