<svg xmlns="http://www.w3.org/2000/svg" width="800" height="600" viewBox="0 0 800 600" fill="none">
  <defs>
    <linearGradient id="heroGradient" x1="0" y1="0" x2="1" y2="1">
      <stop offset="0%" stop-color="#0c8c8a"/>
      <stop offset="100%" stop-color="#f15b7a"/>
    </linearGradient>
    <linearGradient id="waveGradient" x1="0" y1="0" x2="1" y2="0">
      <stop offset="0%" stop-color="#22d3ee"/>
      <stop offset="100%" stop-color="#0c8c8a"/>
    </linearGradient>
  </defs>
  <rect width="800" height="600" rx="40" fill="url(#heroGradient)" opacity="0.22"/>
  <circle cx="150" cy="140" r="90" fill="#22d3ee" opacity="0.25"/>
  <circle cx="650" cy="120" r="80" fill="#f15b7a" opacity="0.2"/>
  <circle cx="620" cy="480" r="120" fill="#c8f58e" opacity="0.18"/>
  <path d="M40 410c80-30 160-30 240 0s160 30 240 0 160-30 240 0" stroke="url(#waveGradient)" stroke-width="22" stroke-linecap="round" opacity="0.65"/>
  <path d="M60 470c70-24 140-24 210 0s140 24 210 0 140-24 210 0" stroke="#ffffff" stroke-width="10" stroke-linecap="round" opacity="0.55"/>
  <g transform="translate(220 240)">
    <circle cx="170" cy="20" r="18" fill="#0f172a" opacity="0.85"/>
    <path d="M80 120c40-50 90-70 160-60" stroke="#0f172a" stroke-width="16" stroke-linecap="round"/>
    <path d="M120 150c50-10 90 0 130 30" stroke="#0f172a" stroke-width="14" stroke-linecap="round"/>
    <path d="M60 90c30 10 60 5 90-10" stroke="#0f172a" stroke-width="12" stroke-linecap="round"/>
  </g>
  <path d="M120 320c60-40 120-40 180 0" stroke="#0c8c8a" stroke-width="10" stroke-linecap="round" opacity="0.6"/>
  <path d="M520 320c50-34 100-34 150 0" stroke="#f15b7a" stroke-width="10" stroke-linecap="round" opacity="0.6"/>
</svg>
